
        <svg xmlns="http://www.w3.org/2000/svg" xmlns:xlink="http://www.w3.org/1999/xlink" version="1.1" width="3162.1621621621625" 
        height="567.5741316902355" viewBox="0 0 3162.1621621621625 567.5741316902355">
			
			<g transform="scale(8.108108108108109) translate(10, 10)">
				<defs id="SvgjsDefs1021"></defs><g id="SvgjsG1022" featureKey="symbolFeature-0" transform="matrix(0.5555635147293082,0,0,0.5555635147293082,-2.7780801027541577,-2.778005132282457)" fill="#00204a"><path xmlns="http://www.w3.org/2000/svg" fill-rule="evenodd" clip-rule="evenodd" d="M34.651,34.651C45.443,23.861,50.439,11.36,45.81,6.731  c-4.631-4.635-17.138,0.361-27.927,11.153C7.093,28.675,2.097,41.179,6.73,45.808C11.359,50.438,23.863,45.442,34.651,34.651z"></path><path xmlns="http://www.w3.org/2000/svg" fill-rule="evenodd" clip-rule="evenodd" d="M82.113,82.116C92.904,71.326,97.9,58.823,93.27,54.194  c-4.631-4.632-17.129,0.363-27.922,11.156c-10.791,10.791-15.786,23.292-11.158,27.92C58.822,97.903,71.326,92.911,82.113,82.116z"></path><path xmlns="http://www.w3.org/2000/svg" fill-rule="evenodd" clip-rule="evenodd" d="M34.651,65.351C23.863,54.558,11.359,49.562,6.73,54.194  c-4.633,4.629,0.363,17.134,11.153,27.922C28.674,92.911,41.179,97.903,45.81,93.271C50.443,88.639,45.443,76.142,34.651,65.351z"></path><path xmlns="http://www.w3.org/2000/svg" fill-rule="evenodd" clip-rule="evenodd" d="M82.113,17.885C71.326,7.093,58.822,2.096,54.189,6.731  c-4.627,4.629,0.367,17.13,11.158,27.919C76.141,45.442,88.643,50.438,93.27,45.808C97.902,41.177,92.908,28.675,82.113,17.885z"></path><path xmlns="http://www.w3.org/2000/svg" d="M50.001,14.6c0,19.552-15.853,35.401-35.401,35.401c19.552,0,35.401,15.849,35.401,35.398  c0-19.549,15.848-35.398,35.397-35.398C65.85,50.001,50.001,34.152,50.001,14.6z"></path></g><g id="SvgjsG1023" featureKey="nameFeature-0" transform="matrix(1.181474488671016,0,0,1.181474488671016,68.25141900181667,-11.429107654687687)" fill="#00204a"><path d="M11.08 13.04 l-0.12 11.64 c1.84 0 3.6 -0.12 4.08 -0.24 c0.68 -0.16 1.24 -0.52 1.84 -1.24 c0.44 -0.6 0.92 -1.72 0.92 -2.48 c0 -0.28 0.12 -0.36 0.32 -0.36 l1.08 0.12 c0.2 0.04 0.36 0.08 0.32 0.32 c-0.12 0.68 -0.12 2.76 -0.12 4.16 c0 1.8 0.16 3.72 0.24 4.56 c0.04 0.24 -0.12 0.28 -0.32 0.32 l-0.96 0.2 c-0.16 0.04 -0.24 -0.04 -0.32 -0.32 c-0.16 -0.64 -0.56 -1.56 -0.8 -2.04 c-0.44 -0.76 -1.4 -1.28 -2.2 -1.4 c-1.08 -0.16 -2.32 -0.24 -4.08 -0.24 l0 2.4 c0 2.16 0.2 6.04 0.2 6.76 c0 2.08 0.44 2.8 0.96 3.04 c0.6 0.24 1.36 0.36 3.36 0.36 c0.68 0 2.36 -0.04 3.2 -0.12 c0.8 -0.08 2 -0.48 3.04 -1.32 s3.28 -3.32 4.08 -4.28 c0.16 -0.16 0.28 -0.2 0.4 -0.12 l0.68 0.4 c0.16 0.08 0.2 0.2 0.16 0.32 l-1.8 6.04 c-0.12 0.36 -0.4 0.6 -0.88 0.6 c-0.2 0 -1.08 -0.04 -3.64 -0.08 c-2.6 0 -6.84 -0.04 -13.76 -0.04 c-1.48 0 -2.6 0.04 -3.4 0.04 c-0.84 0.04 -1.36 0.08 -1.72 0.08 c-0.28 0 -0.36 -0.12 -0.36 -0.44 l0 -0.84 c0 -0.24 0.12 -0.36 0.4 -0.36 l1.2 0 c1.84 0 2 -0.28 2 -1.68 l0 -13.4 c0 -3.32 -0.08 -8.24 -0.12 -8.64 c-0.16 -1.28 -0.56 -1.56 -1.64 -1.56 l-1.56 0 c-0.16 0 -0.2 -0.12 -0.2 -0.4 l0 -0.96 c0 -0.12 0.04 -0.28 0.28 -0.28 c0.88 0 2.28 0.12 5.92 0.12 l14.04 -0.04 c0.64 0 1.4 -0.08 1.6 -0.08 s0.28 0.08 0.32 0.2 c0.16 0.56 1.48 6.04 1.64 6.44 c0.08 0.2 0.08 0.28 -0.12 0.4 l-0.64 0.32 c-0.16 0.08 -0.36 0.04 -0.48 -0.16 c-0.2 -0.32 -3.8 -3.92 -4.72 -4.48 c-0.84 -0.52 -1.96 -1.04 -3.04 -1.08 z M36.16 31 l0 3.16 c0 3.28 1.24 4 2.2 4 c0.84 0 1.44 -0.12 2.08 -0.48 c0.12 -0.08 0.24 -0.08 0.36 0.16 l0.28 0.6 c0.12 0.2 0 0.4 -0.16 0.52 c-0.68 0.48 -2.48 1.6 -5.6 1.6 c-2.72 0 -4.44 -1.88 -4.44 -3.72 c0 -1.4 0.08 -4.44 0.08 -5.96 l0.04 -5.28 l-2.2 0 c-0.36 0 -0.64 -0.16 -0.64 -0.56 s0.24 -0.68 0.88 -1 c1.32 -0.6 4.68 -3.6 6.16 -5.28 c0.28 -0.32 0.56 -0.4 0.76 -0.4 c0.36 0 0.52 0.28 0.52 0.6 l-0.16 4.24 l5.08 0 c0.24 0 0.36 0.2 0.28 0.36 l-0.4 1.72 c-0.04 0.16 -0.12 0.32 -0.36 0.32 l-4.68 0 c-0.08 1.64 -0.08 3.56 -0.08 5.4 z M49.72 28.32 l0 8.64 c0 1.2 0.24 1.64 0.6 1.64 l0.8 0 c0.2 0 0.32 0.08 0.32 0.32 l0 0.76 c0 0.28 -0.04 0.44 -0.28 0.44 c-0.32 0 -2.16 -0.12 -4.52 -0.12 c-2.8 0 -4.32 0.12 -4.68 0.12 c-0.16 0 -0.28 -0.12 -0.28 -0.4 l0 -0.8 c0 -0.28 0.16 -0.32 0.6 -0.32 l0.64 0 c0.64 0 1.24 -0.16 1.36 -0.68 c0.2 -0.72 0.2 -1.44 0.2 -2.64 l-0.08 -16.64 c0 -2 -0.52 -3.16 -1.88 -3.68 l-0.72 -0.24 c-0.24 -0.12 -0.32 -0.24 -0.32 -0.36 l0 -0.52 c0 -0.16 0.12 -0.32 0.68 -0.48 c2.2 -0.64 3.64 -1.28 6.04 -2.44 c0.52 -0.24 0.84 -0.4 1.24 -0.4 c0.36 0 0.44 0.32 0.36 1 s-0.12 8.8 -0.12 11.16 l0 2.4 l0.28 0 c0.96 -1.52 2.92 -2.44 5.12 -2.44 c1.8 0 2.84 0.52 4.08 1.56 c1.88 1.56 1.72 3.56 1.72 6.12 l0 2.48 c0 2 -0.08 4.44 -0.08 5.2 c0 0.56 0.8 0.6 1.28 0.6 l0.76 0 c0.32 0 0.44 0.08 0.44 0.28 l0 0.84 c0 0.24 -0.08 0.4 -0.32 0.4 c-0.28 0 -1.56 -0.12 -4.36 -0.12 c-2.76 0 -4.2 0.12 -4.56 0.12 c-0.28 0 -0.36 -0.12 -0.36 -0.44 l0 -0.76 c0 -0.2 0.04 -0.32 0.28 -0.32 l0.52 0 c0.36 0 0.88 -0.2 0.96 -0.76 c0.04 -0.56 0.12 -2.68 0.12 -3.88 l0 -2.44 c0 -1.96 0.12 -4.76 -0.92 -5.8 c-0.56 -0.56 -1.04 -0.76 -1.88 -0.76 c-0.88 0 -1.76 0.72 -2.36 1.4 c-0.32 0.4 -0.68 0.92 -0.68 1.96 z M72.2 16.76 c0 1.28 -0.88 2.68 -3.04 2.72 c-1.6 0.04 -2.8 -1.04 -2.8 -2.6 c0 -1.28 1.32 -2.44 3 -2.44 c1.88 0 2.84 1.2 2.84 2.32 z M75 39.72 c0 0.28 -0.08 0.4 -0.36 0.4 c-0.32 0 -2.16 -0.12 -5.64 -0.12 c-2.32 0 -3.88 0.12 -4.32 0.12 c-0.2 0 -0.32 -0.08 -0.32 -0.4 l0 -0.8 c0 -0.24 0.12 -0.32 0.4 -0.32 l1.48 0 c0.44 0 0.72 -0.16 0.76 -0.8 c0.08 -1.2 0.08 -2.44 0.08 -3.56 l-0.08 -5.6 c0 -1.12 -0.24 -1.92 -1.92 -2.52 c-0.44 -0.16 -0.48 -0.32 -0.48 -0.56 l0 -0.44 c0 -0.12 0.08 -0.2 0.44 -0.32 l5.96 -1.92 c0.44 -0.16 0.8 -0.24 1.08 -0.24 c0.32 0 0.44 0.2 0.4 0.48 c-0.08 0.68 -0.08 3.2 -0.08 6.72 l0 4.28 c0 1.56 0 3 0.04 3.44 c0.08 0.76 0.28 1.04 0.72 1.04 l1.44 0 c0.32 0 0.4 0.12 0.4 0.36 l0 0.76 z M85.56 22.64 c5.24 0 6.4 2.64 6.4 3.88 c0 1.12 -0.8 1.88 -2.08 1.88 c-1.68 0 -2.56 -1.12 -2.88 -2.12 c-0.48 -1.44 -1.24 -1.92 -2.36 -1.92 c-1.08 0 -2.64 1.56 -2.64 4.08 s-0.08 4.32 1.28 6.8 c1 1.8 2.48 2.32 4.28 2.32 c1.84 0 2.72 -0.36 4 -1.28 c0.2 -0.12 0.32 -0.2 0.44 -0.04 l0.56 0.56 c0.12 0.16 0.08 0.32 -0.04 0.52 c-0.76 1.32 -3.88 3.24 -7.56 3.24 c-3 0 -5 -0.84 -6.28 -2.44 c-1.56 -1.92 -2.04 -3.48 -2.04 -5.52 c0 -2.72 0.88 -5.64 3 -7.6 c1.8 -1.64 3.76 -2.36 5.92 -2.36 z M103.03999999999999 29.36 l0 -2.12 c0 -0.8 -0.08 -1.72 -0.6 -2.2 c-0.4 -0.36 -1.04 -0.48 -1.68 -0.48 c-0.72 0 -1.4 0.16 -2.12 0.64 c-0.6 0.4 -0.12 1.08 -0.12 2.36 c0 1.36 -1 2.28 -2.6 2.28 c-0.92 0 -1.72 -0.56 -1.72 -1.44 s0.28 -2.08 1.12 -2.8 c1.68 -1.52 4.44 -2.96 7.68 -2.96 c2.56 0 3.24 0.4 4.08 1.16 c0.88 0.8 1.12 1.96 1.12 3.4 l0.08 7.96 c0.04 2.08 0.16 2.72 0.92 2.72 c0.56 0 1 -0.44 1.16 -0.72 c0.16 -0.24 0.28 -0.28 0.4 -0.2 l0.56 0.32 c0.16 0.08 0.28 0.2 0.12 0.56 c-0.36 0.84 -1.56 2.72 -4.04 2.72 c-1.56 0 -3.04 -0.56 -3.8 -2.44 l-0.2 0 c-1 0.92 -1.84 1.48 -3.44 2.08 c-0.8 0.28 -1.72 0.36 -2.88 0.36 c-1.4 0 -2.64 -1.52 -2.64 -3.68 c0 -1.76 0.84 -3.6 3.44 -4.88 c3.12 -1.48 4.12 -1.92 5.16 -2.64 z M103.08 36.64 l0 -5.68 c-1.96 1.12 -3.6 1.72 -3.6 4.48 c0 1.84 0.84 2.6 1.72 2.64 c1.08 -0.08 1.88 -1.08 1.88 -1.44 z M119.52000000000001 24.52 l0 7.48 c0 1.6 0 4.2 0.12 5.36 c0.04 0.68 0.16 1.24 1 1.24 l1.36 0 c0.36 0 0.44 0.12 0.44 0.36 l0 0.76 c0 0.24 -0.08 0.4 -0.24 0.4 c-0.28 0 -2.04 -0.12 -5.2 -0.12 c-3.36 0 -4.96 0.12 -5.32 0.12 c-0.2 0 -0.28 -0.16 -0.28 -0.48 l0 -0.68 c0 -0.28 0.08 -0.36 0.52 -0.36 l1.2 0 c0.44 0 1.08 -0.28 1.08 -1.72 l0 -12.72 c0 -2.84 0 -6.08 -0.08 -7.12 c-0.08 -1.36 -0.92 -1.92 -2.2 -2.32 l-0.72 -0.24 c-0.28 -0.12 -0.32 -0.24 -0.32 -0.44 l0 -0.6 c0 -0.12 0.08 -0.28 0.36 -0.32 c1.8 -0.36 5.96 -1.72 7.12 -2.32 c0.44 -0.2 0.68 -0.28 0.88 -0.28 c0.24 0 0.4 0.2 0.36 0.72 c-0.04 2.2 -0.08 10.52 -0.08 13.28 z M147.76 40.6 c-5.32 0 -8.12 -1.44 -10.64 -3.68 c-2.96 -2.64 -4.36 -7.24 -4.36 -10.68 c0 -4.12 1.32 -7.84 4.12 -10.84 c2.28 -2.44 5.6 -4.32 10.56 -4.32 c3.64 0 6.64 0.92 8.04 1.68 c0.56 0.28 0.76 0.24 0.84 -0.04 l0.32 -1 c0.08 -0.24 0.16 -0.24 0.76 -0.24 s0.68 0.08 0.68 0.64 c0 0.76 0.72 7.56 0.92 8.76 c0.04 0.28 0 0.48 -0.2 0.52 l-0.88 0.24 c-0.2 0.08 -0.36 -0.08 -0.48 -0.44 c-0.44 -1.6 -1.52 -3.64 -3.2 -5.36 c-1.72 -1.68 -3.84 -3 -6.88 -3 c-5.84 0 -8.32 5.32 -8.28 11.24 c0 2.52 0.72 7.44 3.56 10.44 c2.6 2.68 4.88 3 6.24 3 c4.56 0 7.96 -2.08 9.44 -4.28 c0.2 -0.32 0.4 -0.48 0.6 -0.32 l0.68 0.6 c0.12 0.08 0.16 0.24 0 0.48 c-2.32 3.36 -6.2 6.6 -11.84 6.6 z M170.96 29.36 l0 -2.12 c0 -0.8 -0.08 -1.72 -0.6 -2.2 c-0.4 -0.36 -1.04 -0.48 -1.68 -0.48 c-0.72 0 -1.4 0.16 -2.12 0.64 c-0.6 0.4 -0.12 1.08 -0.12 2.36 c0 1.36 -1 2.28 -2.6 2.28 c-0.92 0 -1.72 -0.56 -1.72 -1.44 s0.28 -2.08 1.12 -2.8 c1.68 -1.52 4.44 -2.96 7.68 -2.96 c2.56 0 3.24 0.4 4.08 1.16 c0.88 0.8 1.12 1.96 1.12 3.4 l0.08 7.96 c0.04 2.08 0.16 2.72 0.92 2.72 c0.56 0 1 -0.44 1.16 -0.72 c0.16 -0.24 0.28 -0.28 0.4 -0.2 l0.56 0.32 c0.16 0.08 0.28 0.2 0.12 0.56 c-0.36 0.84 -1.56 2.72 -4.04 2.72 c-1.56 0 -3.04 -0.56 -3.8 -2.44 l-0.2 0 c-1 0.92 -1.84 1.48 -3.44 2.08 c-0.8 0.28 -1.72 0.36 -2.88 0.36 c-1.4 0 -2.64 -1.52 -2.64 -3.68 c0 -1.76 0.84 -3.6 3.44 -4.88 c3.12 -1.48 4.12 -1.92 5.16 -2.64 z M171 36.64 l0 -5.68 c-1.96 1.12 -3.6 1.72 -3.6 4.48 c0 1.84 0.84 2.6 1.72 2.64 c1.08 -0.08 1.88 -1.08 1.88 -1.44 z M182.12000000000003 44.08 l-0.04 -14.76 c0 -1.36 -0.12 -1.96 -1.32 -2.6 l-0.92 -0.48 c-0.2 -0.12 -0.28 -0.2 -0.28 -0.36 l0 -0.52 c0 -0.12 0.08 -0.2 0.28 -0.28 l5.2 -2.04 c0.52 -0.2 0.88 -0.4 1.24 -0.4 c0.24 0 0.36 0.28 0.48 0.84 l0.28 1.48 l0.16 0 c1 -1.24 3.08 -2.32 5.08 -2.32 c2.16 0 3.64 0.6 4.96 2.04 c1.68 1.84 2.24 3.24 2.16 5.56 c0.04 6.08 -4.04 10.32 -9.12 10.32 c-0.68 0 -1.96 -0.04 -3 -0.64 l0.04 6.12 c0.04 3.24 0.44 3.44 1.4 3.44 l1 0 c0.32 0 0.36 0.16 0.36 0.4 l0 0.76 c0 0.24 -0.08 0.36 -0.36 0.36 c-0.2 0 -1.56 -0.12 -5.12 -0.12 c-2.92 0 -4.32 0.12 -4.64 0.12 c-0.28 0 -0.36 -0.12 -0.36 -0.4 l0 -0.8 c0 -0.2 0.08 -0.32 0.48 -0.32 l0.92 0 c0.68 0 0.96 -0.4 1.04 -1.04 c0.08 -0.88 0.08 -2.08 0.08 -4.36 z M187.28000000000003 26.48 l0 9.28 c0 0.64 0.28 1.68 1.08 2.32 c0.6 0.48 1.44 0.92 2.4 0.92 c1.68 0 3.16 -1.48 3.16 -5.32 c0 -2.52 -0.28 -8.28 -4.16 -8.28 c-0.76 0 -1.84 0.32 -2.48 1.08 z M208.96000000000004 16.76 c0 1.28 -0.88 2.68 -3.04 2.72 c-1.6 0.04 -2.8 -1.04 -2.8 -2.6 c0 -1.28 1.32 -2.44 3 -2.44 c1.88 0 2.84 1.2 2.84 2.32 z M211.76000000000002 39.72 c0 0.28 -0.08 0.4 -0.36 0.4 c-0.32 0 -2.16 -0.12 -5.64 -0.12 c-2.32 0 -3.88 0.12 -4.32 0.12 c-0.2 0 -0.32 -0.08 -0.32 -0.4 l0 -0.8 c0 -0.24 0.12 -0.32 0.4 -0.32 l1.48 0 c0.44 0 0.72 -0.16 0.76 -0.8 c0.08 -1.2 0.08 -2.44 0.08 -3.56 l-0.08 -5.6 c0 -1.12 -0.24 -1.92 -1.92 -2.52 c-0.44 -0.16 -0.48 -0.32 -0.48 -0.56 l0 -0.44 c0 -0.12 0.08 -0.2 0.44 -0.32 l5.96 -1.92 c0.44 -0.16 0.8 -0.24 1.08 -0.24 c0.32 0 0.44 0.2 0.4 0.48 c-0.08 0.68 -0.08 3.2 -0.08 6.72 l0 4.28 c0 1.56 0 3 0.04 3.44 c0.08 0.76 0.28 1.04 0.72 1.04 l1.44 0 c0.32 0 0.4 0.12 0.4 0.36 l0 0.76 z M220.56 31 l0 3.16 c0 3.28 1.24 4 2.2 4 c0.84 0 1.44 -0.12 2.08 -0.48 c0.12 -0.08 0.24 -0.08 0.36 0.16 l0.28 0.6 c0.12 0.2 0 0.4 -0.16 0.52 c-0.68 0.48 -2.48 1.6 -5.6 1.6 c-2.72 0 -4.44 -1.88 -4.44 -3.72 c0 -1.4 0.08 -4.44 0.08 -5.96 l0.04 -5.28 l-2.2 0 c-0.36 0 -0.64 -0.16 -0.64 -0.56 s0.24 -0.68 0.88 -1 c1.32 -0.6 4.68 -3.6 6.16 -5.28 c0.28 -0.32 0.56 -0.4 0.76 -0.4 c0.36 0 0.52 0.28 0.52 0.6 l-0.16 4.24 l5.08 0 c0.24 0 0.36 0.2 0.28 0.36 l-0.4 1.72 c-0.04 0.16 -0.12 0.32 -0.36 0.32 l-4.68 0 c-0.08 1.64 -0.08 3.56 -0.08 5.4 z M236.00000000000003 29.36 l0 -2.12 c0 -0.8 -0.08 -1.72 -0.6 -2.2 c-0.4 -0.36 -1.04 -0.48 -1.68 -0.48 c-0.72 0 -1.4 0.16 -2.12 0.64 c-0.6 0.4 -0.12 1.08 -0.12 2.36 c0 1.36 -1 2.28 -2.6 2.28 c-0.92 0 -1.72 -0.56 -1.72 -1.44 s0.28 -2.08 1.12 -2.8 c1.68 -1.52 4.44 -2.96 7.68 -2.96 c2.56 0 3.24 0.4 4.08 1.16 c0.88 0.8 1.12 1.96 1.12 3.4 l0.08 7.96 c0.04 2.08 0.16 2.72 0.92 2.72 c0.56 0 1 -0.44 1.16 -0.72 c0.16 -0.24 0.28 -0.28 0.4 -0.2 l0.56 0.32 c0.16 0.08 0.28 0.2 0.12 0.56 c-0.36 0.84 -1.56 2.72 -4.04 2.72 c-1.56 0 -3.04 -0.56 -3.8 -2.44 l-0.2 0 c-1 0.92 -1.84 1.48 -3.44 2.08 c-0.8 0.28 -1.72 0.36 -2.88 0.36 c-1.4 0 -2.64 -1.52 -2.64 -3.68 c0 -1.76 0.84 -3.6 3.44 -4.88 c3.12 -1.48 4.12 -1.92 5.16 -2.64 z M236.04000000000002 36.64 l0 -5.68 c-1.96 1.12 -3.6 1.72 -3.6 4.48 c0 1.84 0.84 2.6 1.72 2.64 c1.08 -0.08 1.88 -1.08 1.88 -1.44 z M252.48000000000005 24.52 l0 7.48 c0 1.6 0 4.2 0.12 5.36 c0.04 0.68 0.16 1.24 1 1.24 l1.36 0 c0.36 0 0.44 0.12 0.44 0.36 l0 0.76 c0 0.24 -0.08 0.4 -0.24 0.4 c-0.28 0 -2.04 -0.12 -5.2 -0.12 c-3.36 0 -4.96 0.12 -5.32 0.12 c-0.2 0 -0.28 -0.16 -0.28 -0.48 l0 -0.68 c0 -0.28 0.08 -0.36 0.52 -0.36 l1.2 0 c0.44 0 1.08 -0.28 1.08 -1.72 l0 -12.72 c0 -2.84 0 -6.08 -0.08 -7.12 c-0.08 -1.36 -0.92 -1.92 -2.2 -2.32 l-0.72 -0.24 c-0.28 -0.12 -0.32 -0.24 -0.32 -0.44 l0 -0.6 c0 -0.12 0.08 -0.28 0.36 -0.32 c1.8 -0.36 5.96 -1.72 7.12 -2.32 c0.44 -0.2 0.68 -0.28 0.88 -0.28 c0.24 0 0.4 0.2 0.36 0.72 c-0.04 2.2 -0.08 10.52 -0.08 13.28 z"></path></g>
			</g>
		</svg>
	