<?xml version="1.0" encoding="utf-8"?>
<!-- Generator: Adobe Illustrator 27.5.0, SVG Export Plug-In . SVG Version: 6.00 Build 0)  -->
<svg version="1.1" id="Layer_1" xmlns="http://www.w3.org/2000/svg" xmlns:xlink="http://www.w3.org/1999/xlink" x="0px" y="0px"
	 viewBox="0 0 595.28 75" style="enable-background:new 0 0 595.28 75;" xml:space="preserve">
<style type="text/css">
	.st0{fill-rule:evenodd;clip-rule:evenodd;fill:#112349;}
	.st1{fill:#112349;}
</style>
<g>
	<path class="st0" d="M63.36,26.96c8.14-8.15,11.91-17.58,8.42-21.08c-3.49-3.5-12.93,0.27-21.07,8.42
		c-8.14,8.15-11.91,17.59-8.41,21.08C45.79,38.88,55.22,35.11,63.36,26.96L63.36,26.96z"/>
	<path class="st0" d="M99.16,62.8c8.14-8.15,11.91-17.59,8.42-21.08c-3.49-3.5-12.92,0.27-21.06,8.42
		c-8.14,8.15-11.91,17.59-8.42,21.08C81.59,74.72,91.03,70.95,99.16,62.8L99.16,62.8z"/>
	<path class="st0" d="M63.36,50.14c-8.14-8.15-17.57-11.92-21.06-8.42c-3.49,3.49,0.27,12.94,8.41,21.08
		c8.14,8.15,17.57,11.92,21.07,8.42C75.27,67.72,71.5,58.29,63.36,50.14L63.36,50.14z"/>
	<path class="st0" d="M99.16,14.31C91.03,6.16,81.59,2.39,78.1,5.88c-3.49,3.49,0.28,12.93,8.42,21.08
		c8.14,8.15,17.57,11.92,21.06,8.42C111.07,31.89,107.31,22.45,99.16,14.31L99.16,14.31z"/>
	<path class="st1" d="M74.94,11.83c0,14.76-11.96,26.73-26.71,26.73c14.75,0,26.71,11.97,26.71,26.72
		c0-14.76,11.96-26.72,26.7-26.72C86.89,38.55,74.94,26.59,74.94,11.83L74.94,11.83z"/>
	<path class="st1" d="M151.44,9.98l-0.19,18.69c2.95,0,5.78-0.19,6.55-0.39c1.09-0.26,1.99-0.83,2.95-1.99
		c0.71-0.96,1.48-2.76,1.48-3.98c0-0.45,0.19-0.58,0.51-0.58l1.73,0.19c0.32,0.06,0.58,0.13,0.51,0.51
		c-0.19,1.09-0.19,4.43-0.19,6.68c0,2.89,0.26,5.97,0.39,7.32c0.06,0.39-0.19,0.45-0.51,0.51l-1.54,0.32
		c-0.26,0.06-0.39-0.06-0.51-0.51c-0.26-1.03-0.9-2.5-1.28-3.28c-0.71-1.22-2.25-2.06-3.53-2.25c-1.73-0.26-3.72-0.39-6.55-0.39
		v3.85c0,3.47,0.32,9.7,0.32,10.85c0,3.34,0.71,4.5,1.54,4.88c0.96,0.39,2.18,0.58,5.39,0.58c1.09,0,3.79-0.06,5.13-0.19
		c1.28-0.13,3.21-0.77,4.88-2.12c1.67-1.35,5.26-5.33,6.55-6.87c0.26-0.26,0.45-0.32,0.64-0.19l1.09,0.64
		c0.26,0.13,0.32,0.32,0.26,0.51l-2.89,9.7c-0.19,0.58-0.64,0.96-1.41,0.96c-0.32,0-1.73-0.06-5.84-0.13
		c-4.17,0-10.97-0.06-22.07-0.06c-2.37,0-4.17,0.06-5.45,0.06c-1.35,0.06-2.18,0.13-2.76,0.13c-0.45,0-0.58-0.19-0.58-0.71v-1.35
		c0-0.39,0.19-0.58,0.64-0.58h1.93c2.95,0,3.21-0.45,3.21-2.7V26.62c0-5.33-0.13-13.23-0.19-13.87c-0.26-2.06-0.9-2.5-2.63-2.5h-2.5
		c-0.26,0-0.32-0.19-0.32-0.64V8.06c0-0.19,0.06-0.45,0.45-0.45c1.41,0,3.66,0.19,9.5,0.19l22.52-0.06c1.03,0,2.25-0.13,2.57-0.13
		c0.32,0,0.45,0.13,0.51,0.32c0.26,0.9,2.37,9.7,2.63,10.34c0.13,0.32,0.13,0.45-0.19,0.64l-1.03,0.51
		c-0.26,0.13-0.58,0.06-0.77-0.26c-0.32-0.51-6.1-6.29-7.57-7.19c-1.35-0.83-3.14-1.67-4.88-1.73L151.44,9.98L151.44,9.98z
		 M191.68,38.82v5.07c0,5.27,1.99,6.42,3.53,6.42c1.35,0,2.31-0.19,3.34-0.77c0.19-0.13,0.39-0.13,0.58,0.26l0.45,0.96
		c0.19,0.32,0,0.64-0.26,0.83c-1.09,0.77-3.98,2.57-8.98,2.57c-4.36,0-7.12-3.02-7.12-5.97c0-2.25,0.13-7.13,0.13-9.57l0.06-8.48
		h-3.53c-0.58,0-1.03-0.26-1.03-0.9c0-0.64,0.39-1.09,1.41-1.61c2.12-0.96,7.51-5.78,9.88-8.48c0.45-0.51,0.9-0.64,1.22-0.64
		c0.58,0,0.83,0.45,0.83,0.96l-0.26,6.81h8.15c0.39,0,0.58,0.32,0.45,0.58l-0.64,2.76c-0.06,0.26-0.19,0.51-0.58,0.51h-7.51
		C191.68,32.78,191.68,35.87,191.68,38.82L191.68,38.82L191.68,38.82z M213.43,34.52v13.87c0,1.93,0.39,2.63,0.96,2.63h1.28
		c0.32,0,0.51,0.13,0.51,0.51v1.22c0,0.45-0.06,0.71-0.45,0.71c-0.51,0-3.47-0.19-7.25-0.19c-4.49,0-6.93,0.19-7.51,0.19
		c-0.26,0-0.45-0.19-0.45-0.64v-1.28c0-0.45,0.26-0.51,0.96-0.51h1.03c1.03,0,1.99-0.26,2.18-1.09c0.32-1.16,0.32-2.31,0.32-4.24
		l-0.13-26.72c0-3.21-0.83-5.07-3.02-5.91l-1.16-0.39c-0.39-0.19-0.51-0.39-0.51-0.58v-0.83c0-0.26,0.19-0.51,1.09-0.77
		c3.53-1.03,5.84-2.06,9.69-3.92c0.83-0.39,1.35-0.64,1.99-0.64c0.58,0,0.71,0.51,0.58,1.61c-0.13,1.09-0.19,14.13-0.19,17.92v3.85
		h0.45c1.54-2.44,4.68-3.92,8.21-3.92c2.89,0,4.56,0.83,6.55,2.5c3.02,2.5,2.76,5.72,2.76,9.83v3.98c0,3.21-0.13,7.13-0.13,8.35
		c0,0.9,1.28,0.96,2.05,0.96h1.22c0.51,0,0.71,0.13,0.71,0.45v1.35c0,0.39-0.13,0.64-0.51,0.64c-0.45,0-2.5-0.19-6.99-0.19
		c-4.43,0-6.74,0.19-7.32,0.19c-0.45,0-0.58-0.19-0.58-0.71v-1.22c0-0.32,0.06-0.51,0.45-0.51h0.83c0.58,0,1.41-0.32,1.54-1.22
		c0.06-0.9,0.19-4.3,0.19-6.23v-3.92c0-3.15,0.19-7.64-1.48-9.31c-0.9-0.9-1.67-1.22-3.02-1.22c-1.41,0-2.82,1.16-3.79,2.25
		C214.01,32.01,213.43,32.85,213.43,34.52L213.43,34.52L213.43,34.52z M249.49,15.96c0,2.06-1.41,4.3-4.88,4.37
		c-2.57,0.06-4.49-1.67-4.49-4.17c0-2.06,2.12-3.92,4.81-3.92C247.95,12.23,249.49,14.16,249.49,15.96L249.49,15.96L249.49,15.96z
		 M253.98,52.82c0,0.45-0.13,0.64-0.58,0.64c-0.51,0-3.47-0.19-9.05-0.19c-3.72,0-6.22,0.19-6.93,0.19c-0.32,0-0.51-0.13-0.51-0.64
		v-1.28c0-0.39,0.19-0.51,0.64-0.51h2.37c0.71,0,1.16-0.26,1.22-1.28c0.13-1.93,0.13-3.92,0.13-5.72l-0.13-8.99
		c0-1.8-0.39-3.08-3.08-4.05c-0.71-0.26-0.77-0.51-0.77-0.9v-0.71c0-0.19,0.13-0.32,0.71-0.51l9.56-3.08
		c0.71-0.26,1.28-0.39,1.73-0.39c0.51,0,0.71,0.32,0.64,0.77c-0.13,1.09-0.13,5.14-0.13,10.79v6.87c0,2.5,0,4.82,0.06,5.52
		c0.13,1.22,0.45,1.67,1.16,1.67h2.31c0.51,0,0.64,0.19,0.64,0.58L253.98,52.82L253.98,52.82L253.98,52.82z M270.93,25.4
		c8.41,0,10.27,4.24,10.27,6.23c0,1.8-1.28,3.02-3.34,3.02c-2.7,0-4.11-1.8-4.62-3.4c-0.77-2.31-1.99-3.08-3.79-3.08
		c-1.73,0-4.24,2.5-4.24,6.55c0,4.05-0.13,6.94,2.05,10.92c1.6,2.89,3.98,3.72,6.87,3.72c2.95,0,4.36-0.58,6.42-2.06
		c0.32-0.19,0.51-0.32,0.71-0.06l0.9,0.9c0.19,0.26,0.13,0.51-0.06,0.83c-1.22,2.12-6.22,5.2-12.13,5.2
		c-4.81,0-8.02-1.35-10.07-3.92c-2.5-3.08-3.27-5.59-3.27-8.86c0-4.37,1.41-9.06,4.81-12.2C264.32,26.55,267.46,25.4,270.93,25.4
		L270.93,25.4L270.93,25.4z M298.97,36.19v-3.4c0-1.28-0.13-2.76-0.96-3.53c-0.64-0.58-1.67-0.77-2.7-0.77
		c-1.16,0-2.25,0.26-3.4,1.03c-0.96,0.64-0.19,1.73-0.19,3.79c0,2.18-1.6,3.66-4.17,3.66c-1.48,0-2.76-0.9-2.76-2.31
		c0-1.41,0.45-3.34,1.8-4.5c2.7-2.44,7.12-4.75,12.32-4.75c4.11,0,5.2,0.64,6.55,1.86c1.41,1.28,1.8,3.15,1.8,5.46l0.13,12.78
		c0.06,3.34,0.26,4.37,1.48,4.37c0.9,0,1.6-0.71,1.86-1.16c0.26-0.39,0.45-0.45,0.64-0.32l0.9,0.51c0.26,0.13,0.45,0.32,0.19,0.9
		c-0.58,1.35-2.5,4.37-6.48,4.37c-2.5,0-4.88-0.9-6.1-3.92h-0.32c-1.6,1.48-2.95,2.38-5.52,3.34c-1.28,0.45-2.76,0.58-4.62,0.58
		c-2.25,0-4.24-2.44-4.24-5.91c0-2.83,1.35-5.78,5.52-7.84C295.7,38.05,297.3,37.34,298.97,36.19L298.97,36.19L298.97,36.19z
		 M299.03,47.87v-9.12c-3.14,1.8-5.78,2.76-5.78,7.19c0,2.95,1.35,4.17,2.76,4.24C297.75,50.06,299.03,48.45,299.03,47.87
		L299.03,47.87z M325.41,28.42v12.01c0,2.57,0,6.74,0.19,8.61c0.06,1.09,0.26,1.99,1.6,1.99h2.18c0.58,0,0.71,0.19,0.71,0.58v1.22
		c0,0.39-0.13,0.64-0.39,0.64c-0.45,0-3.27-0.19-8.34-0.19c-5.39,0-7.96,0.19-8.53,0.19c-0.32,0-0.45-0.26-0.45-0.77V51.6
		c0-0.45,0.13-0.58,0.83-0.58h1.93c0.71,0,1.73-0.45,1.73-2.76V27.84c0-4.56,0-9.76-0.13-11.43c-0.13-2.18-1.48-3.08-3.53-3.72
		l-1.16-0.39c-0.45-0.19-0.51-0.39-0.51-0.71v-0.96c0-0.19,0.13-0.45,0.58-0.51c2.89-0.58,9.56-2.76,11.42-3.72
		c0.71-0.32,1.09-0.45,1.41-0.45c0.39,0,0.64,0.32,0.58,1.16C325.47,10.63,325.41,23.98,325.41,28.42L325.41,28.42L325.41,28.42z
		 M370.71,54.23c-8.53,0-13.03-2.31-17.07-5.91c-4.75-4.24-6.99-11.62-6.99-17.15c0-6.61,2.12-12.59,6.61-17.4
		c3.66-3.92,8.98-6.94,16.94-6.94c5.84,0,10.65,1.48,12.9,2.7c0.9,0.45,1.22,0.39,1.35-0.06l0.51-1.61
		c0.13-0.39,0.26-0.39,1.22-0.39s1.09,0.13,1.09,1.03c0,1.22,1.16,12.14,1.48,14.06c0.06,0.45,0,0.77-0.32,0.83l-1.41,0.39
		c-0.32,0.13-0.58-0.13-0.77-0.71c-0.71-2.57-2.44-5.84-5.13-8.61c-2.76-2.7-6.16-4.82-11.04-4.82c-9.37,0-13.35,8.54-13.28,18.05
		c0,4.05,1.16,11.95,5.71,16.76c4.17,4.3,7.83,4.82,10.01,4.82c7.32,0,12.77-3.34,15.14-6.87c0.32-0.51,0.64-0.77,0.96-0.51
		l1.09,0.96c0.19,0.13,0.26,0.39,0,0.77C385.98,49.03,379.76,54.23,370.71,54.23L370.71,54.23L370.71,54.23z M407.93,36.19v-3.4
		c0-1.28-0.13-2.76-0.96-3.53c-0.64-0.58-1.67-0.77-2.7-0.77c-1.16,0-2.25,0.26-3.4,1.03c-0.96,0.64-0.19,1.73-0.19,3.79
		c0,2.18-1.6,3.66-4.17,3.66c-1.48,0-2.76-0.9-2.76-2.31c0-1.41,0.45-3.34,1.8-4.5c2.7-2.44,7.12-4.75,12.32-4.75
		c4.11,0,5.2,0.64,6.55,1.86c1.41,1.28,1.8,3.15,1.8,5.46l0.13,12.78c0.06,3.34,0.26,4.37,1.48,4.37c0.9,0,1.6-0.71,1.86-1.16
		c0.26-0.39,0.45-0.45,0.64-0.32l0.9,0.51c0.26,0.13,0.45,0.32,0.19,0.9c-0.58,1.35-2.5,4.37-6.48,4.37c-2.5,0-4.88-0.9-6.1-3.92
		h-0.32c-1.6,1.48-2.95,2.38-5.52,3.34c-1.28,0.45-2.76,0.58-4.62,0.58c-2.25,0-4.24-2.44-4.24-5.91c0-2.83,1.35-5.78,5.52-7.84
		C404.66,38.05,406.26,37.34,407.93,36.19L407.93,36.19L407.93,36.19z M407.99,47.87v-9.12c-3.14,1.8-5.78,2.76-5.78,7.19
		c0,2.95,1.35,4.17,2.76,4.24C406.71,50.06,407.99,48.45,407.99,47.87L407.99,47.87z M425.83,59.82l-0.06-23.7
		c0-2.18-0.19-3.15-2.12-4.17l-1.48-0.77c-0.32-0.19-0.45-0.32-0.45-0.58v-0.83c0-0.19,0.13-0.32,0.45-0.45l8.34-3.28
		c0.83-0.32,1.41-0.64,1.99-0.64c0.38,0,0.58,0.45,0.77,1.35l0.45,2.38h0.26c1.6-1.99,4.94-3.72,8.15-3.72
		c3.47,0,5.84,0.96,7.96,3.28c2.7,2.95,3.59,5.2,3.47,8.93c0.06,9.76-6.48,16.57-14.63,16.57c-1.09,0-3.14-0.06-4.81-1.03l0.06,9.83
		c0.06,5.2,0.71,5.52,2.25,5.52h1.6c0.51,0,0.58,0.26,0.58,0.64v1.22c0,0.39-0.13,0.58-0.58,0.58c-0.32,0-2.5-0.19-8.21-0.19
		c-4.68,0-6.93,0.19-7.44,0.19c-0.45,0-0.58-0.19-0.58-0.64V69c0-0.32,0.13-0.51,0.77-0.51h1.48c1.09,0,1.54-0.64,1.67-1.67
		C425.83,65.41,425.83,63.48,425.83,59.82L425.83,59.82L425.83,59.82z M434.11,31.56v14.9c0,1.03,0.45,2.7,1.73,3.72
		c0.96,0.77,2.31,1.48,3.85,1.48c2.7,0,5.07-2.38,5.07-8.54c0-4.05-0.45-13.29-6.67-13.29C436.87,29.83,435.14,30.34,434.11,31.56
		L434.11,31.56L434.11,31.56z M468.89,15.96c0,2.06-1.41,4.3-4.88,4.37c-2.57,0.06-4.49-1.67-4.49-4.17c0-2.06,2.12-3.92,4.81-3.92
		C467.35,12.23,468.89,14.16,468.89,15.96L468.89,15.96L468.89,15.96z M473.38,52.82c0,0.45-0.13,0.64-0.58,0.64
		c-0.51,0-3.47-0.19-9.05-0.19c-3.72,0-6.22,0.19-6.93,0.19c-0.32,0-0.51-0.13-0.51-0.64v-1.28c0-0.39,0.19-0.51,0.64-0.51h2.37
		c0.71,0,1.16-0.26,1.22-1.28c0.13-1.93,0.13-3.92,0.13-5.72l-0.13-8.99c0-1.8-0.39-3.08-3.08-4.05c-0.71-0.26-0.77-0.51-0.77-0.9
		v-0.71c0-0.19,0.13-0.32,0.71-0.51l9.56-3.08c0.71-0.26,1.28-0.39,1.73-0.39c0.51,0,0.71,0.32,0.64,0.77
		c-0.13,1.09-0.13,5.14-0.13,10.79v6.87c0,2.5,0,4.82,0.06,5.52c0.13,1.22,0.45,1.67,1.16,1.67h2.31c0.51,0,0.64,0.19,0.64,0.58
		L473.38,52.82L473.38,52.82L473.38,52.82z M487.5,38.82v5.07c0,5.27,1.99,6.42,3.53,6.42c1.35,0,2.31-0.19,3.34-0.77
		c0.19-0.13,0.39-0.13,0.58,0.26l0.45,0.96c0.19,0.32,0,0.64-0.26,0.83c-1.09,0.77-3.98,2.57-8.98,2.57c-4.36,0-7.12-3.02-7.12-5.97
		c0-2.25,0.13-7.13,0.13-9.57l0.06-8.48h-3.53c-0.58,0-1.03-0.26-1.03-0.9c0-0.64,0.39-1.09,1.41-1.61
		c2.12-0.96,7.51-5.78,9.88-8.48c0.45-0.51,0.9-0.64,1.22-0.64c0.58,0,0.83,0.45,0.83,0.96l-0.26,6.81h8.15
		c0.39,0,0.58,0.32,0.45,0.58l-0.64,2.76c-0.06,0.26-0.19,0.51-0.58,0.51h-7.51C487.5,32.78,487.5,35.87,487.5,38.82L487.5,38.82
		L487.5,38.82z M512.27,36.19v-3.4c0-1.28-0.13-2.76-0.96-3.53c-0.64-0.58-1.67-0.77-2.7-0.77c-1.16,0-2.25,0.26-3.4,1.03
		c-0.96,0.64-0.19,1.73-0.19,3.79c0,2.18-1.6,3.66-4.17,3.66c-1.48,0-2.76-0.9-2.76-2.31c0-1.41,0.45-3.34,1.8-4.5
		c2.7-2.44,7.12-4.75,12.32-4.75c4.11,0,5.2,0.64,6.55,1.86c1.41,1.28,1.8,3.15,1.8,5.46l0.13,12.78c0.06,3.34,0.26,4.37,1.48,4.37
		c0.9,0,1.6-0.71,1.86-1.16c0.26-0.39,0.45-0.45,0.64-0.32l0.9,0.51c0.26,0.13,0.45,0.32,0.19,0.9c-0.58,1.35-2.5,4.37-6.48,4.37
		c-2.5,0-4.88-0.9-6.1-3.92h-0.32c-1.6,1.48-2.95,2.38-5.52,3.34c-1.28,0.45-2.76,0.58-4.62,0.58c-2.25,0-4.24-2.44-4.24-5.91
		c0-2.83,1.35-5.78,5.52-7.84C509,38.05,510.6,37.34,512.27,36.19L512.27,36.19L512.27,36.19z M512.33,47.87v-9.12
		c-3.14,1.8-5.78,2.76-5.78,7.19c0,2.95,1.35,4.17,2.76,4.24C511.05,50.06,512.33,48.45,512.33,47.87L512.33,47.87z M538.71,28.42
		v12.01c0,2.57,0,6.74,0.19,8.61c0.06,1.09,0.26,1.99,1.6,1.99h2.18c0.58,0,0.71,0.19,0.71,0.58v1.22c0,0.39-0.13,0.64-0.39,0.64
		c-0.45,0-3.27-0.19-8.34-0.19c-5.39,0-7.96,0.19-8.53,0.19c-0.32,0-0.45-0.26-0.45-0.77V51.6c0-0.45,0.13-0.58,0.83-0.58h1.93
		c0.71,0,1.73-0.45,1.73-2.76V27.84c0-4.56,0-9.76-0.13-11.43c-0.13-2.18-1.48-3.08-3.53-3.72l-1.16-0.39
		c-0.45-0.19-0.51-0.39-0.51-0.71v-0.96c0-0.19,0.13-0.45,0.58-0.51c2.89-0.58,9.56-2.76,11.42-3.72c0.71-0.32,1.09-0.45,1.41-0.45
		c0.39,0,0.64,0.32,0.58,1.16C538.77,10.63,538.71,23.98,538.71,28.42L538.71,28.42L538.71,28.42z"/>
</g>
</svg>
